<svg xmlns="http://www.w3.org/2000/svg" width="500" zoomAndPan="magnify" viewBox="0 0 375 375" height="500" preserveAspectRatio="xMidYMid meet" xmlns:v="https://vecta.io/nano"><defs><clipPath id="A"><path d="M1 64h312v310.719H1zm0 0" clip-rule="nonzero"/></clipPath></defs><g fill="rgba(0, 0, 0, 0)"><path d="M359.047 211.496a57.44 57.44 0 0 1-8.293.605c-25.937 0-47.887-16.961-55.414-40.387-1.289-4.004-4.559-7.09-8.695-7.875-43.074-8.199-75.645-46-75.645-91.445 0-19.086 5.762-36.816 15.621-51.582 2.348-3.512.391-8.187-3.754-9.008-11.371-2.25-23.125-3.441-35.16-3.441-99.699 0-180.52 80.793-180.52 180.453s80.82 180.457 180.52 180.457c89.852 0 164.148-65.383 178.125-151.277.633-3.898-2.879-7.074-6.785-6.5zm0 0"/><path d="M129.473 130.605l-.109 2.281a22.79 22.79 0 0 1-.336 2.262l-.555 2.215-.77 2.152-.98 2.066-1.172 1.957-1.363 1.836-1.535 1.695a22.4 22.4 0 0 1-1.691 1.531l-1.836 1.363-1.961 1.176a23.74 23.74 0 0 1-2.066.977l-2.152.77-2.219.555-2.258.336-2.285.109a23.41 23.41 0 0 1-2.281-.109l-2.262-.336-2.215-.555-2.152-.77-2.066-.977-1.961-1.176-1.836-1.363a23.24 23.24 0 0 1-1.695-1.531 22.32 22.32 0 0 1-1.531-1.695l-1.363-1.836-1.176-1.957-.977-2.066a23.23 23.23 0 0 1-.77-2.152 22.66 22.66 0 0 1-.555-2.215l-.336-2.262-.113-2.281a23.41 23.41 0 0 1 .113-2.281 23.13 23.13 0 0 1 .336-2.258l.555-2.219.77-2.152.977-2.062 1.176-1.961a23.01 23.01 0 0 1 1.363-1.836 22.4 22.4 0 0 1 1.531-1.691l1.695-1.535c.59-.484 1.203-.937 1.836-1.359l1.961-1.176 2.066-.977a23.11 23.11 0 0 1 2.152-.77 22.66 22.66 0 0 1 2.215-.555l2.262-.336 2.281-.113a23.49 23.49 0 0 1 2.285.113l2.258.336 2.219.555 2.152.77 2.066.977 1.961 1.176 1.836 1.359 1.691 1.535 1.535 1.691 1.363 1.836 1.172 1.961.98 2.063.77 2.152.555 2.219.336 2.258.109 2.281zm5.828 116.422a16.67 16.67 0 0 1-.086 1.711 17.55 17.55 0 0 1-.25 1.695l-.418 1.664a16.87 16.87 0 0 1-.578 1.613l-.73 1.551a18.05 18.05 0 0 1-.883 1.469 16.55 16.55 0 0 1-1.023 1.375 16.89 16.89 0 0 1-1.148 1.273l-1.27 1.148-1.379 1.023-1.469.879-1.551.734-1.617.574a16.38 16.38 0 0 1-1.66.418c-.562.113-1.129.195-1.695.25l-1.715.086a17.75 17.75 0 0 1-1.711-.082l-1.695-.254a16.13 16.13 0 0 1-1.664-.418l-1.613-.574a17.05 17.05 0 0 1-1.551-.734l-1.473-.879-1.375-1.023-1.27-1.148-1.152-1.273-1.023-1.375-.879-1.469-.734-1.551-.578-1.613-.414-1.664a17.56 17.56 0 0 1-.254-1.695l-.082-1.711.082-1.711.254-1.695c.109-.562.25-1.117.414-1.664l.578-1.613.734-1.551.879-1.469 1.023-1.375 1.152-1.27a16.7 16.7 0 0 1 1.27-1.152 17.37 17.37 0 0 1 1.375-1.02 17.33 17.33 0 0 1 1.473-.883l1.551-.734c.527-.219 1.066-.41 1.613-.574l1.664-.418c.562-.113 1.125-.195 1.695-.25l1.711-.086a16.69 16.69 0 0 1 1.715.086l1.695.25 1.66.418a16.78 16.78 0 0 1 1.617.574l1.551.734a17 17 0 0 1 1.469.883 17.43 17.43 0 0 1 1.379 1.02l1.27 1.152 1.148 1.27 1.023 1.375.883 1.469.73 1.551.578 1.613c.168.547.305 1.102.418 1.664l.25 1.695c.059.57.086 1.141.086 1.711zM262.695 55.543l-1.672 10.023c-1.375 8.234 3.277 16.289 11.098 19.223l14.789 5.543c9.773 3.664 20.555-1.996 23.082-12.117l5.273-21.078c3.285-13.141-8.992-24.855-21.969-20.965l-18.391 5.516a17.47 17.47 0 0 0-12.211 13.855zm58.946 63.422l-7.035 3.516c-5.516 2.758-7.922 9.332-5.496 15l5.66 13.195c3.426 7.992 14.086 9.547 19.652 2.867l9.102-10.918c4.266-5.121 3.375-12.77-1.961-16.77l-7.727-5.793a11.65 11.65 0 0 0-12.195-1.098zm46.582-34.93a11.68 11.68 0 0 1-.223 2.273 11.81 11.81 0 0 1-.664 2.184 11.84 11.84 0 0 1-1.074 2.012 11.62 11.62 0 0 1-1.449 1.766 11.83 11.83 0 0 1-1.766 1.445 11.3 11.3 0 0 1-2.012 1.074 11.58 11.58 0 0 1-2.187.664 11.64 11.64 0 0 1-2.27.223 11.68 11.68 0 0 1-2.273-.223c-.75-.148-1.477-.371-2.184-.664s-1.379-.648-2.012-1.074-1.227-.906-1.766-1.445a11.66 11.66 0 0 1-1.449-1.766 11.71 11.71 0 0 1-1.074-2.012c-.293-.703-.516-1.434-.664-2.184a11.68 11.68 0 0 1-.223-2.273 11.67 11.67 0 0 1 .223-2.27c.148-.75.371-1.477.664-2.184s.648-1.379 1.074-2.012a11.66 11.66 0 0 1 1.449-1.766 11.4 11.4 0 0 1 1.766-1.445 11.86 11.86 0 0 1 2.012-1.078 11.5 11.5 0 0 1 2.184-.66 11.39 11.39 0 0 1 2.273-.227 11.35 11.35 0 0 1 2.27.227 11.57 11.57 0 0 1 2.188.66c.707.293 1.375.652 2.012 1.078s1.223.906 1.766 1.445a11.66 11.66 0 0 1 1.449 1.766 11.69 11.69 0 0 1 1.074 2.012 11.81 11.81 0 0 1 .664 2.184 11.67 11.67 0 0 1 .223 2.27zm-158.68 263.41c-99.695 0-180.516-80.793-180.516-180.457 0-44.273 15.973-84.801 42.441-116.199C32.176 83.895 7.191 133.43 7.191 188.816c0 99.664 80.82 180.457 180.516 180.457 55.445 0 104.941-24.918 138.02-64.164-31.371 26.414-71.879 42.336-116.184 42.336zm0 0"/><path d="M289.504 76.824c-9.77-3.664-15.578-13.723-13.863-24.012l1.992-11.941-2.727.816a17.47 17.47 0 0 0-12.211 13.859l-1.672 10.02c-1.375 8.234 3.277 16.289 11.098 19.223l14.789 5.543c7.848 2.941 16.27-.187 20.621-6.75zm37.691 66.352l-6.41-14.949c-1.203-2.805-1.305-5.797-.574-8.551l-5.605 2.801a11.65 11.65 0 0 0-5.496 15l5.66 13.199c3.426 7.988 14.086 9.543 19.652 2.867l2.262-2.715c-4.004-.816-7.664-3.391-9.488-7.652zm-208.636-1.656c-12.867 0-23.293-10.422-23.293-23.281a23.24 23.24 0 0 1 1.836-9.078c-8.352 3.539-14.211 11.809-14.211 21.445 0 12.859 10.43 23.285 23.293 23.285 9.641 0 17.914-5.859 21.453-14.207a23.19 23.19 0 0 1-9.078 1.836zm8.371 113.878c-9.648 0-17.473-7.82-17.473-17.465a17.36 17.36 0 0 1 1.445-6.926c-6.199 2.684-10.543 8.84-10.543 16.023a17.47 17.47 0 0 0 17.469 17.461c7.188 0 13.344-4.34 16.027-10.535-2.125.918-4.465 1.441-6.926 1.441zm124.832 9.094l-.113 2.281c-.074.758-.187 1.512-.336 2.262l-.555 2.215-.77 2.152-.977 2.063a22.06 22.06 0 0 1-1.176 1.961 23.01 23.01 0 0 1-1.363 1.836 22.4 22.4 0 0 1-1.531 1.691l-1.695 1.535-1.836 1.359a22.75 22.75 0 0 1-1.961 1.176 23.21 23.21 0 0 1-2.066.977 22.12 22.12 0 0 1-2.152.77 22.66 22.66 0 0 1-2.215.555l-2.262.336-2.281.113a23.49 23.49 0 0 1-2.285-.113l-2.258-.336-2.219-.555c-.73-.219-1.445-.477-2.152-.77l-2.066-.977-1.961-1.176-1.836-1.359-1.691-1.535-1.535-1.691-1.363-1.836-1.172-1.961-.98-2.062-.77-2.152-.555-2.215-.336-2.262-.109-2.281.109-2.281a23.21 23.21 0 0 1 .336-2.262l.555-2.215.77-2.152.98-2.066 1.172-1.957 1.363-1.836 1.535-1.695 1.691-1.531 1.836-1.363 1.961-1.172 2.066-.98 2.152-.77 2.219-.555 2.258-.336 2.285-.109 2.281.109 2.262.336 2.215.555 2.152.77 2.066.98 1.961 1.172 1.836 1.363a23.24 23.24 0 0 1 1.695 1.531 22.32 22.32 0 0 1 1.531 1.695l1.363 1.836a22.68 22.68 0 0 1 1.176 1.957l.977 2.066a23.23 23.23 0 0 1 .77 2.152 22.94 22.94 0 0 1 .555 2.215l.336 2.262.113 2.281zm0 0"/><path d="M240.844 275.406c-12.863 0-23.293-10.426-23.293-23.285 0-3.219.656-6.285 1.84-9.074-8.355 3.535-14.215 11.809-14.215 21.445 0 12.859 10.43 23.285 23.293 23.285 9.645 0 17.914-5.859 21.457-14.207a23.28 23.28 0 0 1-9.082 1.836zm-47.559-115.695a11.39 11.39 0 0 1-.227 2.273 11.5 11.5 0 0 1-.66 2.184c-.293.707-.652 1.375-1.078 2.012s-.906 1.223-1.445 1.762a11.62 11.62 0 0 1-1.766 1.449 11.34 11.34 0 0 1-2.016 1.074 11.46 11.46 0 0 1-2.184.664 11.67 11.67 0 0 1-2.27.223 11.68 11.68 0 0 1-2.273-.223c-.75-.148-1.477-.371-2.184-.664a11.34 11.34 0 0 1-2.016-1.074c-.633-.426-1.223-.906-1.762-1.449a11.4 11.4 0 0 1-1.449-1.762 11.73 11.73 0 0 1-1.078-2.012c-.293-.703-.512-1.434-.66-2.184a11.68 11.68 0 0 1-.223-2.273 11.67 11.67 0 0 1 .223-2.27 11.8 11.8 0 0 1 .66-2.184c.289-.707.652-1.379 1.078-2.012a11.43 11.43 0 0 1 1.449-1.766 11.83 11.83 0 0 1 1.762-1.449 11.87 11.87 0 0 1 2.016-1.074 11.81 11.81 0 0 1 2.184-.664 11.68 11.68 0 0 1 2.273-.223 11.67 11.67 0 0 1 2.27.223 11.74 11.74 0 0 1 2.184.664 11.87 11.87 0 0 1 2.016 1.074 11.86 11.86 0 0 1 1.766 1.449c.543.539 1.02 1.129 1.445 1.766a11.65 11.65 0 0 1 1.078 2.012 11.5 11.5 0 0 1 .66 2.184 11.38 11.38 0 0 1 .227 2.27zm0 0"/></g><g fill="#fff"><path d="M106.184 101.875c-15.848 0-28.742 12.891-28.742 28.73s12.895 28.73 28.742 28.73 28.742-12.887 28.742-28.73-12.895-28.73-28.742-28.73zm0 46.57c-9.84 0-17.844-8.004-17.844-17.84s8.004-17.836 17.844-17.836 17.844 8 17.844 17.836-8.004 17.84-17.844 17.84zm93.543 116.047c0 15.844 12.895 28.73 28.742 28.73s28.742-12.887 28.742-28.73-12.895-28.73-28.742-28.73-28.742 12.891-28.742 28.73zm28.742-17.84c9.84 0 17.844 8.004 17.844 17.84s-8.004 17.84-17.844 17.84-17.844-8.004-17.844-17.84 8.004-17.84 17.844-17.84zm-110.641-22.531c-12.637 0-22.918 10.277-22.918 22.91s10.281 22.906 22.918 22.906 22.918-10.273 22.918-22.906-10.281-22.91-22.918-22.91zm0 34.926c-6.629 0-12.02-5.391-12.02-12.016s5.391-12.02 12.02-12.02 12.023 5.391 12.023 12.02-5.395 12.016-12.023 12.016zm46.961-99.336c0 9.426 7.672 17.09 17.094 17.09a17.12 17.12 0 0 0 17.098-17.09c0-9.422-7.672-17.086-17.098-17.086s-17.094 7.664-17.094 17.086zm17.094-6.195a6.21 6.21 0 0 1 6.199 6.195c0 3.418-2.781 6.195-6.199 6.195a6.2 6.2 0 0 1-6.195-6.195 6.2 6.2 0 0 1 6.195-6.195zm110.644 93.14a5.43 5.43 0 0 0 2.434-.578c2.691-1.344 3.781-4.613 2.438-7.305l-5.824-11.645c-1.344-2.691-4.617-3.781-7.309-2.434a5.44 5.44 0 0 0-2.437 7.305l5.824 11.645a5.45 5.45 0 0 0 4.875 3.012zm0 0"/><path d="M228.473 211.727a5.44 5.44 0 0 0 2.434-.574l11.645-5.82a5.45 5.45 0 0 0 2.438-7.309 5.45 5.45 0 0 0-7.309-2.434l-11.648 5.82c-2.691 1.344-3.781 4.617-2.434 7.309.953 1.906 2.875 3.008 4.875 3.008zM66.371 197.074c.953 1.91 2.879 3.012 4.879 3.012a5.39 5.39 0 0 0 2.43-.578 5.44 5.44 0 0 0 2.438-7.305l-5.824-11.641c-1.344-2.691-4.617-3.785-7.309-2.437a5.45 5.45 0 0 0-2.437 7.309zm89.785 91.653l-11.648 5.82c-2.691 1.344-3.781 4.617-2.434 7.309.953 1.906 2.875 3.012 4.875 3.012a5.43 5.43 0 0 0 2.434-.578l11.645-5.82a5.45 5.45 0 0 0 2.438-7.309 5.45 5.45 0 0 0-7.309-2.434zm6.289-220.184l-5.824-5.82c-2.125-2.129-5.578-2.129-7.703 0a5.45 5.45 0 0 0 0 7.703l5.824 5.82a5.43 5.43 0 0 0 7.703 0c2.125-2.125 2.125-5.574 0-7.703zm0 0"/><path d="M137.27 196.609a5.44 5.44 0 0 0 0 7.699l5.824 5.824a5.43 5.43 0 0 0 7.703 0c2.129-2.129 2.129-5.578 0-7.703l-5.824-5.82c-2.125-2.129-5.574-2.129-7.703 0zm68.281 126.094v5.82a5.45 5.45 0 0 0 5.449 5.449 5.45 5.45 0 0 0 5.449-5.449v-5.82a5.45 5.45 0 0 0-5.449-5.445 5.45 5.45 0 0 0-5.449 5.445zm-25.637-211.531l5.824-5.82c2.125-2.125 2.125-5.574 0-7.703s-5.578-2.125-7.707 0l-5.82 5.824a5.44 5.44 0 0 0 0 7.699c1.063 1.063 2.457 1.598 3.852 1.598s2.789-.535 3.852-1.598zm90.293-21.285L285 95.434c2.598.973 5.324 1.453 8.043 1.453 3.676 0 7.34-.879 10.656-2.621a22.94 22.94 0 0 0 11.578-14.73l5.273-21.078c2.023-8.098-.371-16.367-6.41-22.129s-14.414-7.77-22.41-5.371l-18.391 5.516c-8.309 2.488-14.594 9.625-16.02 18.176l-1.672 10.02c-1.797 10.777 4.328 21.383 14.559 25.219zm-3.809-23.426l1.668-10.02c.75-4.488 4.047-8.23 8.406-9.535l18.391-5.516a12.13 12.13 0 0 1 3.512-.52c3.027 0 5.957 1.152 8.242 3.336a11.87 11.87 0 0 1 3.363 11.605l-5.273 21.082a11.86 11.86 0 0 1-6.07 7.727c-3.074 1.613-6.559 1.832-9.812.613l-14.789-5.547c-5.367-2.012-8.578-7.574-7.637-13.227zm45.774 51.148c-8.086 4.039-11.629 13.711-8.07 22.016l5.66 13.195c2.359 5.508 7.313 9.313 13.242 10.18a17.73 17.73 0 0 0 2.516.184c5.031 0 9.793-2.207 13.086-6.152l9.102-10.922a16.91 16.91 0 0 0 3.848-12.922 16.94 16.94 0 0 0-6.723-11.687l-7.727-5.793a17 17 0 0 0-17.902-1.613zm11.906 6.227c.883-.441 1.832-.66 2.777-.66a6.17 6.17 0 0 1 3.711 1.246l7.727 5.793a6.13 6.13 0 0 1 2.438 4.238c.199 1.703-.297 3.367-1.395 4.684l-9.102 10.918a6.07 6.07 0 0 1-5.656 2.164c-2.184-.316-3.934-1.664-4.801-3.687l-5.66-13.199a6.21 6.21 0 0 1 2.926-7.984zm32.5-22.711c9.426 0 17.094-7.664 17.094-17.086s-7.668-17.09-17.094-17.09-17.094 7.668-17.094 17.09 7.668 17.086 17.094 17.086zm0-23.281c3.418 0 6.199 2.777 6.199 6.195a6.21 6.21 0 0 1-6.199 6.195c-3.418 0-6.195-2.781-6.195-6.195a6.2 6.2 0 0 1 6.195-6.195zm0 0"/><path d="M358.254 206.105c-2.484.363-5.008.551-7.496.551a52.59 52.59 0 0 1-50.23-36.609c-1.926-5.984-6.855-10.414-12.863-11.559-41.266-7.855-71.215-44.062-71.215-86.094 0-17.359 5.086-34.152 14.707-48.562 2.109-3.16 2.504-7.129 1.059-10.613-1.449-3.492-4.551-6.02-8.289-6.758-18.535-3.672-37.555-4.496-56.523-2.453-37.965 4.086-73.348 19.738-102.328 45.27-2.258 1.988-2.477 5.43-.484 7.688a5.45 5.45 0 0 0 7.688.484c27.281-24.035 60.578-38.77 96.289-42.609 17.879-1.926 35.793-1.148 53.242 2.309.129.023.27.074.34.246s.016.289-.059.395a98.02 98.02 0 0 0-16.539 54.605c0 47.258 33.68 87.965 80.074 96.793 2.09.398 3.824 2.004 4.527 4.191 8.488 26.418 32.844 44.168 60.605 44.168a62.83 62.83 0 0 0 9.082-.664c.398-.059.605.176.613.238-5.254 32.285-19.52 62.426-41.266 87.164-1.984 2.258-1.762 5.699.496 7.688 1.035.906 2.32 1.352 3.598 1.352a5.44 5.44 0 0 0 4.094-1.848c23.094-26.277 38.254-58.301 43.832-92.605.57-3.488-.531-6.937-3.023-9.465-2.562-2.605-6.273-3.836-9.93-3.301zm0 0"/></g><g clip-path="url(#A)"><path fill="#fff" d="M303.215 320.262c-31.945 28.094-72.965 43.566-115.508 43.566-24.523 0-48.238-4.969-70.492-14.766-21.5-9.465-40.617-22.961-56.816-40.113-16.176-17.121-28.535-36.93-36.738-58.879-8.531-22.82-12.141-46.902-10.727-71.57 2.203-38.453 17.609-75.766 43.375-105.066a5.45 5.45 0 0 0-.496-7.687 5.45 5.45 0 0 0-7.687.496C20.758 97.359 4.398 137.004 2.055 177.875c-1.5 26.191 2.332 51.762 11.398 76.012 8.715 23.316 21.844 44.359 39.023 62.543 17.207 18.215 37.512 32.547 60.348 42.602 23.645 10.41 48.84 15.688 74.883 15.688 45.191 0 88.77-16.437 122.707-46.281a5.45 5.45 0 0 0 .492-7.687c-1.988-2.258-5.43-2.477-7.691-.488zm0 0"/></g></svg>